# xmcd
#
# Track frame offsets:
#	150
#	34373
#	56969
#	88597
#	113920
#	140422
#	177321
#	210531
#	227035
#	276141
#
# Disc length: 4060 seconds
#
# Revision: 0
# Processed by: cddbd v1.5.2PL0 Copyright (c) Steve Scherf et al.
# Submitted via: dBpowerAMP V4.0
#
DISCID=920fda0a
DTITLE=Locked Inside The Machine - ...Just For One Long Day...
DYEAR=2003
DGENRE=Mattis' Tune
TTITLE0=Scenes From The Hospital
TTITLE1=Talk To Me
TTITLE2=Betty Hasn't Noticed The Stones In Her Shoes
TTITLE3=Brainwashed (Ice Age Boils)
TTITLE4=Copefear
TTITLE5=You Left The Child Crying
TTITLE6=Just For One Long Day (Longpapers)
TTITLE7=A Fast Track
TTITLE8=Reason For The Rain
TTITLE9=Old Ways
EXTD=© Matthias Schmidt and Christoph Hammer 2003
EXTT0=
EXTT1=
EXTT2=
EXTT3=
EXTT4=
EXTT5=
EXTT6=
EXTT7=
EXTT8=
EXTT9=
PLAYORDER=
